<svg width="144" height="144" fill="none" xmlns="http://www.w3.org/2000/svg"><path fill="#1FCEF4" d="M16 0h16v16H16zM32 0h16v16H32zM48 0h16v16H48zM80 0h16v16H80zM96 0h16v16H96zM112 0h16v16h-16zM0 16h16v16H0zM16 16h16v16H16zM32 16h16v16H32zM48 16h16v16H48zM64 16h16v16H64zM80 16h16v16H80zM96 16h16v16H96zM112 16h16v16h-16zM128 16h16v16h-16zM0 32h16v16H0zM16 32h16v16H16zM48 32h16v16H48zM64 32h16v16H64zM80 32h16v16H80zM112 32h16v16h-16zM128 32h16v16h-16zM16 48h16v16H16zM32 48h16v16H32zM48 48h16v16H48zM64 48h16v16H64zM80 48h16v16H80zM96 48h16v16H96zM112 48h16v16h-16zM0 64h16v16H0zM16 64h16v16H16zM112 64h16v16h-16zM128 64h16v16h-16zM0 80h16v16H0zM16 80h16v16H16zM32 80h16v16H32zM96 80h16v16H96zM112 80h16v16h-16zM128 80h16v16h-16zM0 96h16v16H0zM32 96h16v16H32zM48 96h16v16H48zM64 96h16v16H64zM80 96h16v16H80zM96 96h16v16H96zM128 96h16v16h-16zM32 112h16v16H32zM96 112h16v16H96zM0 128h16v16H0zM16 128h16v16H16zM32 128h16v16H32zM96 128h16v16H96zM112 128h16v16h-16zM128 128h16v16h-16z"/></svg>