<svg width="144" height="128" fill="none" xmlns="http://www.w3.org/2000/svg"><path fill="#1FCEF4" d="M32 0h16v16H32zM16 0h16v16H16zM48 0h16v16H48zM64 0h16v16H64zM80 0h16v16H80zM96 0h16v16H96zM112 0h16v16h-16zM32 16h16v16H32zM64 16h16v16H64zM96 16h16v16H96zM32 32h16v16H32zM48 32h16v16H48zM64 32h16v16H64zM80 32h16v16H80zM96 32h16v16H96zM0 32h16v16H0zM16 48h16v16H16zM32 48h16v16H32zM96 48h16v16H96zM112 48h16v16h-16zM128 32h16v16h-16zM0 48h16v16H0zM32 64h16v16H32zM48 64h16v16H48zM64 64h16v16H64zM80 64h16v16H80zM96 64h16v16H96zM128 48h16v16h-16zM32 80h16v16H32zM48 80h16v16H48zM64 80h16v16H64zM80 80h16v16H80zM48 96h16v16H48zM80 96h16v16H80zM96 80h16v16H96zM32 96h16v16H32zM64 96h16v16H64zM96 96h16v16H96zM16 112h16v16H16zM32 112h16v16H32zM96 112h16v16H96zM112 112h16v16h-16z"/></svg>